<?xml version="1.0" encoding="UTF-8" standalone="no"?>
<svg
   xmlns:dc="http://purl.org/dc/elements/1.1/"
   xmlns:cc="http://creativecommons.org/ns#"
   xmlns:rdf="http://www.w3.org/1999/02/22-rdf-syntax-ns#"
   xmlns:svg="http://www.w3.org/2000/svg"
   xmlns="http://www.w3.org/2000/svg"
   xmlns:sodipodi="http://sodipodi.sourceforge.net/DTD/sodipodi-0.dtd"
   xmlns:inkscape="http://www.inkscape.org/namespaces/inkscape"
   width="210mm"
   height="297mm"
   viewBox="0 0 210 297"
   version="1.1"
   id="svg107"
   inkscape:version="1.0.2 (e86c870879, 2021-01-15, custom)"
   sodipodi:docname="P.svg">
  <defs
     id="defs101" />
  <sodipodi:namedview
     id="base"
     pagecolor="#ffffff"
     bordercolor="#666666"
     borderopacity="1.0"
     inkscape:pageopacity="0.0"
     inkscape:pageshadow="2"
     inkscape:zoom="0.35"
     inkscape:cx="-412.85714"
     inkscape:cy="560"
     inkscape:document-units="mm"
     inkscape:current-layer="layer1"
     inkscape:document-rotation="0"
     showgrid="false"
     inkscape:window-width="1465"
     inkscape:window-height="967"
     inkscape:window-x="104"
     inkscape:window-y="104"
     inkscape:window-maximized="0" />
  <metadata
     id="metadata104">
    <rdf:RDF>
      <cc:Work
         rdf:about="">
        <dc:format>image/svg+xml</dc:format>
        <dc:type
           rdf:resource="http://purl.org/dc/dcmitype/StillImage" />
        <dc:title></dc:title>
      </cc:Work>
    </rdf:RDF>
  </metadata>
  <g
     inkscape:label="Warstwa 1"
     inkscape:groupmode="layer"
     id="layer1">
    <g
       id="g126"
       inkscape:export-xdpi="96"
       inkscape:export-ydpi="96">
      <rect
         style="fill:#00ffff;stroke-width:0.264583"
         id="rect122"
         width="65.011902"
         height="65.011902"
         x="58.964287"
         y="98.273804" />
      <path
         d="m 73.104803,130.77976 v 23.28333 h 7.40833 7.40834 v -8.64305 -8.64306 h 5.75028 c 6.491107,0 9.101657,-0.45861 12.311937,-2.18722 5.08,-2.71639 7.65528,-8.64305 6.6675,-15.31055 -0.74083,-5.04473 -2.92806,-8.32556 -6.77333,-10.08945 -3.28084,-1.55222 -4.83306,-1.69333 -19.191107,-1.69333 h -13.58195 z m 22.013328,-13.37028 c 1.72862,0.49389 2.8575,1.62278 3.42195,3.42195 0.35278,1.23472 0.3175,1.69333 -0.17639,3.03389 -0.9525,2.46944 -2.36361,3.175 -6.808608,3.31611 l -3.63361,0.14111 v -5.15056 -5.15055 h 2.92805 c 1.5875,0 3.492498,0.17639 4.268608,0.38805 z"
         id="path38"
         style="fill:#000000;stroke:none;stroke-width:0.0352778" />
    </g>
  </g>
</svg>
