<svg id="eRtVaZQTc0P1" xmlns="http://www.w3.org/2000/svg" xmlns:xlink="http://www.w3.org/1999/xlink" viewBox="0 0 297 210" shape-rendering="geometricPrecision" text-rendering="geometricPrecision"><g id="eRtVaZQTc0P2" transform="matrix(0.253784 0 0 0.250698 7.22475 167.521)"><line id="eRtVaZQTc0P3" x1="303.10001" y1="501" x2="302.10001" y2="501" fill="none" stroke="none" stroke-width="1"/></g><g id="eRtVaZQTc0P4" transform="matrix(0.175564 0 0 0.173209 82.7767 46.4267)"><g id="eRtVaZQTc0P5"><g id="eRtVaZQTc0P6"><g id="eRtVaZQTc0P7"><path id="eRtVaZQTc0P8" d="M256,209.779C230.513,209.779,209.778,230.514,209.778,256.001C209.778,281.488,230.513,302.223,256,302.223C281.487,302.223,302.222,281.488,302.222,256.001C302.222,230.514,281.487,209.779,256,209.779ZM256,281.824C241.761,281.824,230.177,270.24,230.177,256.001C230.177,241.762,241.761,230.178,256,230.178C270.239,230.178,281.823,241.762,281.823,256.001C281.823,270.24,270.239,281.824,256,281.824Z" fill="rgb(0,0,0)" stroke="none" stroke-width="1"/><path id="eRtVaZQTc0P9" d="M256,135.614C189.62,135.614,135.614,189.619,135.614,256C135.614,322.381,189.62,376.387,256,376.387C322.38,376.387,376.386,322.381,376.386,256.001C376.386,189.621,322.38,135.614,256,135.614ZM256,355.988C200.866,355.988,156.012,311.134,156.012,256C156.012,200.866,200.866,156.012,256,156.012C311.134,156.012,355.988,200.866,355.988,256C355.988,311.134,311.134,355.988,256,355.988Z" fill="rgb(0,0,0)" stroke="none" stroke-width="1"/></g></g></g><g id="eRtVaZQTc0P10"><g id="eRtVaZQTc0P11"><path id="eRtVaZQTc0P12" d="M327.911,286.3C323.054,283.449,316.804,285.074,313.952,289.933C301.928,310.418,279.721,323.144,256,323.144C250.367,323.144,245.801,327.71,245.801,333.343C245.801,338.976,250.367,343.542,256,343.542C286.926,343.542,315.872,326.957,331.544,300.259C334.395,295.401,332.768,289.152,327.911,286.3Z" fill="rgb(0,0,0)" stroke="none" stroke-width="1"/></g></g><g id="eRtVaZQTc0P13"><g id="eRtVaZQTc0P14"><path id="eRtVaZQTc0P15" d="M333.344,245.801C327.711,245.801,323.145,250.367,323.145,256C323.145,258.149,323.043,260.319,322.84,262.45C322.307,268.058,326.42,273.036,332.027,273.569C332.355,273.6,332.681,273.615,333.004,273.615C338.201,273.615,342.643,269.661,343.146,264.382C343.409,261.612,343.543,258.792,343.543,256C343.543,250.367,338.977,245.801,333.344,245.801Z" fill="rgb(0,0,0)" stroke="none" stroke-width="1"/></g></g><g id="eRtVaZQTc0P16"><g id="eRtVaZQTc0P17"><g id="eRtVaZQTc0P18"><path id="eRtVaZQTc0P19" d="M478.683,201.684L462.282,201.684C456.68,201.684,451.736,198.071,449.982,192.695C446.716,182.685,442.627,172.842,437.83,163.44C435.313,158.509,436.289,152.529,440.258,148.559L451.869,136.949C464.86,123.957,464.86,102.82,451.869,89.83L422.171,60.132C409.18,47.142,388.043,47.141,375.052,60.132L363.442,71.743C359.475,75.712,353.495,76.688,348.561,74.171C339.158,69.373,329.315,65.285,319.307,62.02C313.931,60.265,310.318,55.322,310.318,49.72L310.318,33.318C310.318,14.946,295.372,0,277,0L235.001,0C216.629,0,201.683,14.946,201.683,33.318L201.683,49.717C201.683,55.319,198.07,60.263,192.694,62.017C182.684,65.283,172.841,69.372,163.439,74.169C158.508,76.686,152.528,75.71,148.558,71.741L136.948,60.13C123.956,47.14,102.819,47.141,89.829,60.13L60.131,89.829C47.14,102.821,47.14,123.958,60.131,136.948L71.742,148.558C75.711,152.528,76.688,158.507,74.171,163.439C69.373,172.842,65.284,182.685,62.019,192.694C60.264,198.07,55.321,201.683,49.719,201.683L33.318,201.683C14.946,201.683,0,216.629,0,235L0,277C0,295.372,14.946,310.318,33.318,310.318L49.718,310.318C55.32,310.318,60.264,313.931,62.018,319.307C65.285,329.317,69.373,339.161,74.17,348.562C76.687,353.493,75.711,359.473,71.742,363.443L60.131,375.053C47.14,388.045,47.14,409.182,60.131,422.172L89.829,451.87C102.821,464.86,123.958,464.86,136.948,451.87L148.558,440.259C152.527,436.29,158.507,435.314,163.439,437.831C172.842,442.629,182.685,446.716,192.693,449.982C198.069,451.737,201.682,456.68,201.682,462.282L201.682,478.683C201.682,497.055,216.628,512,235,512L276.999,512C295.371,512,310.317,497.054,310.318,478.683L310.318,462.282C310.318,456.68,313.931,451.736,319.307,449.982C329.317,446.716,339.16,442.627,348.562,437.83C353.494,435.313,359.474,436.29,363.443,440.258L375.053,451.869C388.045,464.86,409.182,464.859,422.172,451.869L451.87,422.171C464.861,409.179,464.861,388.042,451.87,375.052L440.259,363.442C436.289,359.474,435.313,353.493,437.831,348.561C442.629,339.158,446.717,329.315,449.982,319.307C451.737,313.931,456.68,310.318,462.282,310.318L478.683,310.318C497.055,310.318,512.001,295.372,512.001,277L512.001,235.001C512.001,216.63,497.055,201.684,478.683,201.684ZM491.603,276.999C491.603,284.123,485.807,289.918,478.684,289.918L462.283,289.918C447.829,289.918,435.093,299.185,430.591,312.977C427.654,321.979,423.977,330.832,419.662,339.289C413.114,352.121,415.596,367.623,425.837,377.864L437.447,389.475C442.484,394.512,442.484,402.709,437.447,407.746L407.749,437.444C402.712,442.48,394.515,442.481,389.478,437.444L377.867,425.834C367.627,415.594,352.124,413.113,339.292,419.659C330.835,423.975,321.982,427.652,312.98,430.589C299.188,435.09,289.922,447.827,289.922,462.281L289.922,478.682C289.922,485.805,284.127,491.601,277.003,491.601L235.004,491.601C227.88,491.601,222.085,485.805,222.085,478.682L222.085,462.281C222.085,447.827,212.818,435.091,199.026,430.589C190.024,427.652,181.171,423.975,172.714,419.66C167.936,417.221,162.789,416.035,157.679,416.035C149.067,416.035,140.565,419.406,134.139,425.834L122.528,437.444C117.491,442.482,109.294,442.481,104.257,437.444L74.559,407.746C69.522,402.709,69.522,394.512,74.559,389.475L86.17,377.865C96.41,367.624,98.893,352.122,92.345,339.289C88.03,330.832,84.352,321.98,81.415,312.977C76.914,299.185,64.177,289.919,49.723,289.919L33.318,289.919C26.195,289.919,20.399,284.124,20.399,277L20.399,235.001C20.399,227.877,26.195,222.082,33.318,222.082L49.719,222.082C64.173,222.082,76.909,212.815,81.411,199.023C84.348,190.02,88.026,181.168,92.341,172.711C98.888,159.878,96.406,144.377,86.165,134.136L74.555,122.525C69.518,117.488,69.518,109.291,74.555,104.254L104.252,74.557C109.288,69.519,117.485,69.519,122.523,74.557L134.134,86.168C144.375,96.408,159.876,98.889,172.709,92.343C181.166,88.027,190.019,84.35,199.021,81.413C212.813,76.912,222.079,64.175,222.079,49.721L222.079,33.318C222.079,26.195,227.874,20.399,234.998,20.399L276.997,20.399C284.121,20.399,289.916,26.195,289.916,33.318L289.916,49.72C289.916,64.174,299.183,76.91,312.975,81.412C321.977,84.349,330.83,88.026,339.287,92.341C352.118,98.888,367.621,96.407,377.862,86.166L389.473,74.556C394.511,69.519,402.707,69.519,407.744,74.556L437.441,104.252C442.478,109.289,442.478,117.486,437.441,122.523L425.831,134.134C415.59,144.375,413.109,159.877,419.656,172.709C423.972,181.166,427.649,190.019,430.586,199.021C435.087,212.813,447.824,222.079,462.278,222.079L478.679,222.079C485.802,222.079,491.598,227.874,491.598,234.998L491.598,276.999Z" fill="rgb(0,0,0)" stroke="none" stroke-width="1"/><path id="eRtVaZQTc0P20" d="M256,135.614C189.62,135.614,135.614,189.619,135.614,256C135.614,322.381,189.62,376.387,256,376.387C322.38,376.387,376.386,322.381,376.386,256.001C376.386,189.621,322.38,135.614,256,135.614ZM256,355.988C200.866,355.988,156.012,311.134,156.012,256C156.012,200.866,200.866,156.012,256,156.012C311.134,156.012,355.988,200.866,355.988,256C355.988,311.134,311.134,355.988,256,355.988Z" fill="rgb(0,0,0)" stroke="none" stroke-width="1"/></g></g></g></g><g id="eRtVaZQTc0P21" transform="matrix(1 0 0 1 22.7542 0)"><path id="eRtVaZQTc0P22" d="M162.52682,174.08527L162.52682,159.03553L154.89838,159.03553C154.00587,155.35926,152.49029,151.92916,150.45268,148.84372L155.99297,143.47702L145.06394,132.87491L139.43945,138.34008C136.27356,136.45271,132.77088,135.07411,129.03245,134.26993L129.03245,126.52349L113.52299,126.52349L113.52299,134.45046C109.81823,135.3367,106.34923,136.81377,103.23387,138.78321L97.474656,133.20315L86.545624,143.80526L92.490074,149.58226C92.01856,150.33721,91.597565,151.09216,91.19341,151.87993C89.930424,154.22684,88.970556,156.80351,88.313803,159.38018L80.01178,159.38018L80.01178,174.42993L88.482201,174.42993C88.734798,175.41464,89.037915,176.38295,89.374711,177.35125C89.391551,177.41695,89.425231,177.48254,89.442071,177.54819C89.442071,177.56459,89.458911,177.58099,89.458911,177.61389C90.284061,179.94438,91.361809,182.16,92.675313,184.21149L86.697183,190.0049L97.626215,200.60701L103.53699,194.87924C106.61867,196.76662,110.03715,198.19445,113.67455,199.04787L113.67455,206.94201L129.01561,206.94201L129.01561,199.21199C132.83824,198.3914,136.42512,196.96356,139.64152,195.01054L145.06394,200.26236L155.99297,189.66025L150.58739,184.42484C152.60817,181.29016,154.10691,177.81083,154.96574,174.10174L162.52682,174.10174ZM146.56268,184.58891L151.59778,189.47967L145.43441,195.47002L140.46667,190.64491C136.30724,193.74677,131.30582,195.8475,125.86656,196.55321L125.86656,203.51187L117.22774,203.51187L117.22774,196.50397C111.92321,195.74903,107.0565,193.68112,102.98127,190.64491L97.659894,195.81467L91.496526,189.82432L96.952622,184.68738C93.938297,180.74852,91.900681,176.08753,91.15973,170.99983L83.531299,170.99983L83.531299,162.61333L90.940812,162.61333L91.19341,162.0225C91.98488,157.14816,93.971977,152.65129,96.851583,148.84372L91.462846,143.60831L97.626214,137.61796L102.84655,142.85337C106.88811,139.81716,111.73797,137.73284,117.00883,136.94507L117.00883,129.93717L125.64765,129.93717L125.64765,136.87942C131.03638,137.55231,135.97045,139.57098,140.12988,142.59078L145.23234,137.65078L151.22731,143.64114L146.24273,148.48266C149.30757,152.3887,151.41255,157.04969,152.22086,162.12098L159.86613,162.12098L159.86613,170.50747L152.33873,170.50747C151.68198,175.72647,149.62753,180.53516,146.56268,184.58891Z" fill="rgb(0,0,0)" stroke="none" stroke-width="0.166245"/><path id="eRtVaZQTc0P23" d="M121.4377,148.25289C111.0307,148.25289,102.39188,156.45886,102.39188,166.73273C102.39188,177.0066,111.04754,185.21257,121.4377,185.21257C131.82785,185.21257,140.48351,176.82607,140.48351,166.73273C140.48351,156.63939,131.84469,148.25289,121.4377,148.25289ZM121.4377,181.78247C112.79888,181.78247,105.92824,175.10281,105.92824,166.73273C105.92824,158.34623,112.98411,151.68299,121.4377,151.68299C129.89128,151.68299,136.94715,158.36264,136.94715,166.73273C136.96395,175.11923,129.90812,181.78247,121.4377,181.78247Z" fill="rgb(0,0,0)" stroke="none" stroke-width="0.166245"/></g><g id="eRtVaZQTc0P24" transform="matrix(0.175564 0 0 0.173209 152.589 3.45848)"><path id="eRtVaZQTc0P25" d="M487.5,208L465.708,208C460.306,183.936,450.917,161.258,437.737,140.438L453.136,125.038C462.299,115.875,462.299,100.967,453.136,91.804L419.195,57.863C414.757,53.424,408.855,50.98,402.578,50.98C396.301,50.98,390.399,53.425,385.961,57.863L370.562,73.262C349.742,60.082,327.064,50.693,303,45.291L303,23.5C303,10.542,292.458,0,279.5,0L231.5,0C218.542,0,208,10.542,208,23.5L208,45.292C183.936,50.694,161.258,60.083,140.438,73.263L125.039,57.864C120.601,53.425,114.699,50.98,108.422,50.98C102.145,50.98,96.243,53.425,91.805,57.863L57.864,91.805C48.701,100.968,48.701,115.876,57.864,125.039L73.264,140.439C60.084,161.259,50.695,183.937,45.293,208L23.5,208C10.542,208,0,218.542,0,231.5L0,279.5C0,292.458,10.542,303,23.5,303L45.293,303C50.695,327.064,60.084,349.741,73.264,370.561L57.864,385.961C53.426,390.399,50.981,396.301,50.981,402.578C50.981,408.855,53.426,414.756,57.864,419.195L91.805,453.136C96.243,457.574,102.145,460.019,108.422,460.019C114.699,460.019,120.601,457.574,125.039,453.136L140.439,437.736C161.259,450.916,183.936,460.304,208.001,465.707L208.001,487.5C208.001,500.458,218.543,511,231.501,511L279.501,511C292.459,511,303.001,500.458,303.001,487.5L303.001,465.708C327.065,460.306,349.742,450.917,370.563,437.737L385.962,453.137C390.4,457.575,396.302,460.02,402.579,460.02C408.856,460.02,414.758,457.575,419.196,453.137L453.137,419.196C457.575,414.758,460.02,408.856,460.02,402.579C460.02,396.302,457.575,390.4,453.137,385.962L437.738,370.563C450.918,349.743,460.306,327.066,465.709,303.001L487.5,303.001C500.458,303.001,511,292.459,511,279.501L511,231.501C511,218.542,500.458,208,487.5,208ZM496,279.5C496,284.187,492.187,288,487.5,288L459.617,288C456.028,288,452.942,290.543,452.256,294.065C447.116,320.443,436.905,345.106,421.908,367.368C419.903,370.344,420.287,374.324,422.825,376.861L442.53,396.566C444.135,398.172,445.02,400.306,445.02,402.577C445.02,404.847,444.136,406.982,442.53,408.587L408.589,442.528C406.984,444.133,404.849,445.018,402.578,445.018C400.307,445.018,398.173,444.134,396.568,442.528L376.862,422.822C374.325,420.284,370.344,419.899,367.369,421.905C345.105,436.903,320.442,447.113,294.065,452.253C290.542,452.939,288,456.025,288,459.614L288,487.5C288,492.187,284.187,496,279.5,496L231.5,496C226.813,496,223,492.187,223,487.5L223,459.617C223,456.028,220.458,452.942,216.935,452.256C190.558,447.116,165.894,436.905,143.632,421.908C142.356,421.049,140.896,420.628,139.444,420.628C137.509,420.628,135.588,421.375,134.138,422.825L114.432,442.531C112.827,444.136,110.693,445.021,108.422,445.021C106.151,445.021,104.017,444.137,102.411,442.531L68.47,408.589C66.865,406.984,65.98,404.849,65.98,402.579C65.98,400.308,66.864,398.174,68.47,396.568L88.176,376.862C90.714,374.324,91.098,370.345,89.093,367.369C74.095,345.106,63.885,320.443,58.745,294.066C58.058,290.543,54.973,288.001,51.384,288.001L23.5,288.001C18.813,288.001,15,284.188,15,279.501L15,231.501C15,226.814,18.813,223.001,23.5,223.001L51.383,223.001C54.972,223.001,58.058,220.458,58.744,216.936C63.884,190.559,74.095,165.896,89.092,143.633C91.097,140.657,90.713,136.677,88.175,134.14L68.47,114.432C65.156,111.118,65.156,105.725,68.47,102.411L102.411,68.47C104.016,66.865,106.151,65.98,108.422,65.98C110.693,65.98,112.827,66.864,114.432,68.47L134.137,88.175C136.675,90.712,140.653,91.097,143.631,89.092C165.894,74.095,190.557,63.884,216.935,58.744C220.457,58.057,223,54.972,223,51.382L223,23.5C223,18.813,226.813,15,231.5,15L279.5,15C284.187,15,288,18.813,288,23.5L288,51.383C288,54.972,290.543,58.058,294.065,58.745C320.442,63.885,345.105,74.095,367.369,89.093C370.346,91.098,374.326,90.714,376.863,88.176L396.569,68.471C398.174,66.866,400.308,65.981,402.579,65.981C404.85,65.981,406.984,66.865,408.59,68.471L442.531,102.412C445.845,105.726,445.845,111.119,442.531,114.433L422.826,134.138C420.288,136.675,419.904,140.655,421.909,143.631C436.907,165.895,447.117,190.558,452.257,216.935C452.943,220.458,456.029,223,459.618,223L487.5,223C492.187,223,496,226.813,496,231.5Z" fill="rgb(0,0,0)" stroke="none" stroke-width="1"/><path id="eRtVaZQTc0P26" d="M119,255.5C119,180.234,180.234,119,255.5,119C273.923,119,291.792,122.605,308.608,129.715C312.423,131.328,316.824,129.543,318.437,125.728C320.05,121.913,318.265,117.512,314.449,115.899C295.774,108.004,275.941,104,255.5,104C171.962,104,104,171.963,104,255.5C104,290.1,115.969,323.936,137.702,350.775C139.184,352.606,141.35,353.556,143.535,353.556C145.193,353.556,146.862,353.009,148.25,351.884C151.469,349.277,151.966,344.555,149.359,341.336C129.782,317.159,119,286.675,119,255.5Z" fill="rgb(0,0,0)" stroke="none" stroke-width="1"/><path id="eRtVaZQTc0P27" d="M385.298,192.614C381.482,194.225,379.695,198.625,381.306,202.441C388.402,219.245,392,237.097,392,255.5C392,330.766,330.767,392,255.5,392C224.338,392,193.864,381.226,169.692,361.663C166.473,359.057,161.751,359.554,159.144,362.775C156.539,365.995,157.036,370.717,160.256,373.323C187.089,395.04,220.914,407,255.5,407C339.038,407,407,339.037,407,255.5C407,235.081,403.004,215.266,395.125,196.606C393.513,192.79,389.112,191.003,385.298,192.614Z" fill="rgb(0,0,0)" stroke="none" stroke-width="1"/><path id="eRtVaZQTc0P28" d="M341.292,149.324C348.771,155.376,355.633,162.238,361.686,169.72C363.168,171.552,365.335,172.503,367.521,172.503C369.178,172.503,370.845,171.957,372.233,170.834C375.454,168.229,375.952,163.506,373.347,160.286C366.634,151.987,359.023,144.376,350.726,137.663C347.507,135.058,342.784,135.556,340.178,138.776C337.573,141.996,338.072,146.719,341.292,149.324Z" fill="rgb(0,0,0)" stroke="none" stroke-width="1"/><path id="eRtVaZQTc0P29" d="M255.5,136C189.607,136,136,189.608,136,255.5C136,321.392,189.607,375,255.5,375C321.393,375,375,321.393,375,255.5C375,189.607,321.393,136,255.5,136ZM255.5,360C197.878,360,151,313.122,151,255.5C151,197.878,197.878,151,255.5,151C313.122,151,360,197.879,360,255.5C360,313.121,313.122,360,255.5,360Z" fill="rgb(0,0,0)" stroke="none" stroke-width="1"/></g><g id="eRtVaZQTc0P30" transform="matrix(1 0 0 1 120.171 -53.9247)"><path id="eRtVaZQTc0P31" d="M162.52682,174.08527L162.52682,159.03553L154.89838,159.03553C154.00587,155.35926,152.49029,151.92916,150.45268,148.84372L155.99297,143.47702L145.06394,132.87491L139.43945,138.34008C136.27356,136.45271,132.77088,135.07411,129.03245,134.26993L129.03245,126.52349L113.52299,126.52349L113.52299,134.45046C109.81823,135.3367,106.34923,136.81377,103.23387,138.78321L97.474656,133.20315L86.545624,143.80526L92.490074,149.58226C92.01856,150.33721,91.597565,151.09216,91.19341,151.87993C89.930424,154.22684,88.970556,156.80351,88.313803,159.38018L80.01178,159.38018L80.01178,174.42993L88.482201,174.42993C88.734798,175.41464,89.037915,176.38295,89.374711,177.35125C89.391551,177.41695,89.425231,177.48254,89.442071,177.54819C89.442071,177.56459,89.458911,177.58099,89.458911,177.61389C90.284061,179.94438,91.361809,182.16,92.675313,184.21149L86.697183,190.0049L97.626215,200.60701L103.53699,194.87924C106.61867,196.76662,110.03715,198.19445,113.67455,199.04787L113.67455,206.94201L129.01561,206.94201L129.01561,199.21199C132.83824,198.3914,136.42512,196.96356,139.64152,195.01054L145.06394,200.26236L155.99297,189.66025L150.58739,184.42484C152.60817,181.29016,154.10691,177.81083,154.96574,174.10174L162.52682,174.10174ZM146.56268,184.58891L151.59778,189.47967L145.43441,195.47002L140.46667,190.64491C136.30724,193.74677,131.30582,195.8475,125.86656,196.55321L125.86656,203.51187L117.22774,203.51187L117.22774,196.50397C111.92321,195.74903,107.0565,193.68112,102.98127,190.64491L97.659894,195.81467L91.496526,189.82432L96.952622,184.68738C93.938297,180.74852,91.900681,176.08753,91.15973,170.99983L83.531299,170.99983L83.531299,162.61333L90.940812,162.61333L91.19341,162.0225C91.98488,157.14816,93.971977,152.65129,96.851583,148.84372L91.462846,143.60831L97.626214,137.61796L102.84655,142.85337C106.88811,139.81716,111.73797,137.73284,117.00883,136.94507L117.00883,129.93717L125.64765,129.93717L125.64765,136.87942C131.03638,137.55231,135.97045,139.57098,140.12988,142.59078L145.23234,137.65078L151.22731,143.64114L146.24273,148.48266C149.30757,152.3887,151.41255,157.04969,152.22086,162.12098L159.86613,162.12098L159.86613,170.50747L152.33873,170.50747C151.68198,175.72647,149.62753,180.53516,146.56268,184.58891Z" fill="rgb(0,0,0)" stroke="none" stroke-width="0.166245"/><path id="eRtVaZQTc0P32" d="M121.4377,148.25289C111.0307,148.25289,102.39188,156.45886,102.39188,166.73273C102.39188,177.0066,111.04754,185.21257,121.4377,185.21257C131.82785,185.21257,140.48351,176.82607,140.48351,166.73273C140.48351,156.63939,131.84469,148.25289,121.4377,148.25289ZM121.4377,181.78247C112.79888,181.78247,105.92824,175.10281,105.92824,166.73273C105.92824,158.34623,112.98411,151.68299,121.4377,151.68299C129.89128,151.68299,136.94715,158.36264,136.94715,166.73273C136.96395,175.11923,129.90812,181.78247,121.4377,181.78247Z" fill="rgb(0,0,0)" stroke="none" stroke-width="0.166245"/></g><g id="eRtVaZQTc0P33" transform="matrix(0.175564 0 0 0.173209 13.052776 2.458487)"><path id="eRtVaZQTc0P34" d="M487.5,208L465.708,208C460.306,183.936,450.917,161.258,437.737,140.438L453.136,125.038C462.299,115.875,462.299,100.967,453.136,91.804L419.195,57.863C414.757,53.424,408.855,50.98,402.578,50.98C396.301,50.98,390.399,53.425,385.961,57.863L370.562,73.262C349.742,60.082,327.064,50.693,303,45.291L303,23.5C303,10.542,292.458,0,279.5,0L231.5,0C218.542,0,208,10.542,208,23.5L208,45.292C183.936,50.694,161.258,60.083,140.438,73.263L125.039,57.864C120.601,53.425,114.699,50.98,108.422,50.98C102.145,50.98,96.243,53.425,91.805,57.863L57.864,91.805C48.701,100.968,48.701,115.876,57.864,125.039L73.264,140.439C60.084,161.259,50.695,183.937,45.293,208L23.5,208C10.542,208,0,218.542,0,231.5L0,279.5C0,292.458,10.542,303,23.5,303L45.293,303C50.695,327.064,60.084,349.741,73.264,370.561L57.864,385.961C53.426,390.399,50.981,396.301,50.981,402.578C50.981,408.855,53.426,414.756,57.864,419.195L91.805,453.136C96.243,457.574,102.145,460.019,108.422,460.019C114.699,460.019,120.601,457.574,125.039,453.136L140.439,437.736C161.259,450.916,183.936,460.304,208.001,465.707L208.001,487.5C208.001,500.458,218.543,511,231.501,511L279.501,511C292.459,511,303.001,500.458,303.001,487.5L303.001,465.708C327.065,460.306,349.742,450.917,370.563,437.737L385.962,453.137C390.4,457.575,396.302,460.02,402.579,460.02C408.856,460.02,414.758,457.575,419.196,453.137L453.137,419.196C457.575,414.758,460.02,408.856,460.02,402.579C460.02,396.302,457.575,390.4,453.137,385.962L437.738,370.563C450.918,349.743,460.306,327.066,465.709,303.001L487.5,303.001C500.458,303.001,511,292.459,511,279.501L511,231.501C511,218.542,500.458,208,487.5,208ZM496,279.5C496,284.187,492.187,288,487.5,288L459.617,288C456.028,288,452.942,290.543,452.256,294.065C447.116,320.443,436.905,345.106,421.908,367.368C419.903,370.344,420.287,374.324,422.825,376.861L442.53,396.566C444.135,398.172,445.02,400.306,445.02,402.577C445.02,404.847,444.136,406.982,442.53,408.587L408.589,442.528C406.984,444.133,404.849,445.018,402.578,445.018C400.307,445.018,398.173,444.134,396.568,442.528L376.862,422.822C374.325,420.284,370.344,419.899,367.369,421.905C345.105,436.903,320.442,447.113,294.065,452.253C290.542,452.939,288,456.025,288,459.614L288,487.5C288,492.187,284.187,496,279.5,496L231.5,496C226.813,496,223,492.187,223,487.5L223,459.617C223,456.028,220.458,452.942,216.935,452.256C190.558,447.116,165.894,436.905,143.632,421.908C142.356,421.049,140.896,420.628,139.444,420.628C137.509,420.628,135.588,421.375,134.138,422.825L114.432,442.531C112.827,444.136,110.693,445.021,108.422,445.021C106.151,445.021,104.017,444.137,102.411,442.531L68.47,408.589C66.865,406.984,65.98,404.849,65.98,402.579C65.98,400.308,66.864,398.174,68.47,396.568L88.176,376.862C90.714,374.324,91.098,370.345,89.093,367.369C74.095,345.106,63.885,320.443,58.745,294.066C58.058,290.543,54.973,288.001,51.384,288.001L23.5,288.001C18.813,288.001,15,284.188,15,279.501L15,231.501C15,226.814,18.813,223.001,23.5,223.001L51.383,223.001C54.972,223.001,58.058,220.458,58.744,216.936C63.884,190.559,74.095,165.896,89.092,143.633C91.097,140.657,90.713,136.677,88.175,134.14L68.47,114.432C65.156,111.118,65.156,105.725,68.47,102.411L102.411,68.47C104.016,66.865,106.151,65.98,108.422,65.98C110.693,65.98,112.827,66.864,114.432,68.47L134.137,88.175C136.675,90.712,140.653,91.097,143.631,89.092C165.894,74.095,190.557,63.884,216.935,58.744C220.457,58.057,223,54.972,223,51.382L223,23.5C223,18.813,226.813,15,231.5,15L279.5,15C284.187,15,288,18.813,288,23.5L288,51.383C288,54.972,290.543,58.058,294.065,58.745C320.442,63.885,345.105,74.095,367.369,89.093C370.346,91.098,374.326,90.714,376.863,88.176L396.569,68.471C398.174,66.866,400.308,65.981,402.579,65.981C404.85,65.981,406.984,66.865,408.59,68.471L442.531,102.412C445.845,105.726,445.845,111.119,442.531,114.433L422.826,134.138C420.288,136.675,419.904,140.655,421.909,143.631C436.907,165.895,447.117,190.558,452.257,216.935C452.943,220.458,456.029,223,459.618,223L487.5,223C492.187,223,496,226.813,496,231.5Z" fill="rgb(0,0,0)" stroke="none" stroke-width="1"/><path id="eRtVaZQTc0P35" d="M119,255.5C119,180.234,180.234,119,255.5,119C273.923,119,291.792,122.605,308.608,129.715C312.423,131.328,316.824,129.543,318.437,125.728C320.05,121.913,318.265,117.512,314.449,115.899C295.774,108.004,275.941,104,255.5,104C171.962,104,104,171.963,104,255.5C104,290.1,115.969,323.936,137.702,350.775C139.184,352.606,141.35,353.556,143.535,353.556C145.193,353.556,146.862,353.009,148.25,351.884C151.469,349.277,151.966,344.555,149.359,341.336C129.782,317.159,119,286.675,119,255.5Z" fill="rgb(0,0,0)" stroke="none" stroke-width="1"/><path id="eRtVaZQTc0P36" d="M385.298,192.614C381.482,194.225,379.695,198.625,381.306,202.441C388.402,219.245,392,237.097,392,255.5C392,330.766,330.767,392,255.5,392C224.338,392,193.864,381.226,169.692,361.663C166.473,359.057,161.751,359.554,159.144,362.775C156.539,365.995,157.036,370.717,160.256,373.323C187.089,395.04,220.914,407,255.5,407C339.038,407,407,339.037,407,255.5C407,235.081,403.004,215.266,395.125,196.606C393.513,192.79,389.112,191.003,385.298,192.614Z" fill="rgb(0,0,0)" stroke="none" stroke-width="1"/><path id="eRtVaZQTc0P37" d="M341.292,149.324C348.771,155.376,355.633,162.238,361.686,169.72C363.168,171.552,365.335,172.503,367.521,172.503C369.178,172.503,370.845,171.957,372.233,170.834C375.454,168.229,375.952,163.506,373.347,160.286C366.634,151.987,359.023,144.376,350.726,137.663C347.507,135.058,342.784,135.556,340.178,138.776C337.573,141.996,338.072,146.719,341.292,149.324Z" fill="rgb(0,0,0)" stroke="none" stroke-width="1"/><path id="eRtVaZQTc0P38" d="M255.5,136C189.607,136,136,189.608,136,255.5C136,321.392,189.607,375,255.5,375C321.393,375,375,321.393,375,255.5C375,189.607,321.393,136,255.5,136ZM255.5,360C197.878,360,151,313.122,151,255.5C151,197.878,197.878,151,255.5,151C313.122,151,360,197.879,360,255.5C360,313.121,313.122,360,255.5,360Z" fill="rgb(0,0,0)" stroke="none" stroke-width="1"/></g><script><![CDATA[!function(t,n){"object"==typeof exports&&"undefined"!=typeof module?module.exports=n():"function"==typeof define&&define.amd?define(n):((t="undefined"!=typeof globalThis?globalThis:t||self).__SVGATOR_PLAYER__=t.__SVGATOR_PLAYER__||{},t.__SVGATOR_PLAYER__["5c7f360c"]=n())}(this,(function(){"use strict";function t(t,n){var r=Object.keys(t);if(Object.getOwnPropertySymbols){var e=Object.getOwnPropertySymbols(t);n&&(e=e.filter((function(n){return Object.getOwnPropertyDescriptor(t,n).enumerable}))),r.push.apply(r,e)}return r}function n(n){for(var r=1;r<arguments.length;r++){var e=null!=arguments[r]?arguments[r]:{};r%2?t(Object(e),!0).forEach((function(t){u(n,t,e[t])})):Object.getOwnPropertyDescriptors?Object.defineProperties(n,Object.getOwnPropertyDescriptors(e)):t(Object(e)).forEach((function(t){Object.defineProperty(n,t,Object.getOwnPropertyDescriptor(e,t))}))}return n}function r(t){return(r="function"==typeof Symbol&&"symbol"==typeof Symbol.iterator?function(t){return typeof t}:function(t){return t&&"function"==typeof Symbol&&t.constructor===Symbol&&t!==Symbol.prototype?"symbol":typeof t})(t)}function e(t,n){if(!(t instanceof n))throw new TypeError("Cannot call a class as a function")}function i(t,n){for(var r=0;r<n.length;r++){var e=n[r];e.enumerable=e.enumerable||!1,e.configurable=!0,"value"in e&&(e.writable=!0),Object.defineProperty(t,e.key,e)}}function o(t,n,r){return n&&i(t.prototype,n),r&&i(t,r),t}function u(t,n,r){return n in t?Object.defineProperty(t,n,{value:r,enumerable:!0,configurable:!0,writable:!0}):t[n]=r,t}function a(t){return(a=Object.setPrototypeOf?Object.getPrototypeOf:function(t){return t.__proto__||Object.getPrototypeOf(t)})(t)}function l(t,n){return(l=Object.setPrototypeOf||function(t,n){return t.__proto__=n,t})(t,n)}function f(){if("undefined"==typeof Reflect||!Reflect.construct)return!1;if(Reflect.construct.sham)return!1;if("function"==typeof Proxy)return!0;try{return Boolean.prototype.valueOf.call(Reflect.construct(Boolean,[],(function(){}))),!0}catch(t){return!1}}function s(t,n,r){return(s=f()?Reflect.construct:function(t,n,r){var e=[null];e.push.apply(e,n);var i=new(Function.bind.apply(t,e));return r&&l(i,r.prototype),i}).apply(null,arguments)}function c(t,n){if(n&&("object"==typeof n||"function"==typeof n))return n;if(void 0!==n)throw new TypeError("Derived constructors may only return object or undefined");return function(t){if(void 0===t)throw new ReferenceError("this hasn't been initialised - super() hasn't been called");return t}(t)}function h(t,n,r){return(h="undefined"!=typeof Reflect&&Reflect.get?Reflect.get:function(t,n,r){var e=function(t,n){for(;!Object.prototype.hasOwnProperty.call(t,n)&&null!==(t=a(t)););return t}(t,n);if(e){var i=Object.getOwnPropertyDescriptor(e,n);return i.get?i.get.call(r):i.value}})(t,n,r||t)}function v(t){return function(t){if(Array.isArray(t))return y(t)}(t)||function(t){if("undefined"!=typeof Symbol&&null!=t[Symbol.iterator]||null!=t["@@iterator"])return Array.from(t)}(t)||function(t,n){if(!t)return;if("string"==typeof t)return y(t,n);var r=Object.prototype.toString.call(t).slice(8,-1);"Object"===r&&t.constructor&&(r=t.constructor.name);if("Map"===r||"Set"===r)return Array.from(t);if("Arguments"===r||/^(?:Ui|I)nt(?:8|16|32)(?:Clamped)?Array$/.test(r))return y(t,n)}(t)||function(){throw new TypeError("Invalid attempt to spread non-iterable instance.\nIn order to be iterable, non-array objects must have a [Symbol.iterator]() method.")}()}function y(t,n){(null==n||n>t.length)&&(n=t.length);for(var r=0,e=new Array(n);r<n;r++)e[r]=t[r];return e}var g=d(Math.pow(10,-6));function d(t){var n=arguments.length>1&&void 0!==arguments[1]?arguments[1]:6;if(Number.isInteger(t))return t;var r=Math.pow(10,n);return Math.round((+t+Number.EPSILON)*r)/r}function p(t,n){var r=arguments.length>2&&void 0!==arguments[2]?arguments[2]:g;return Math.abs(t-n)<r}var m=Math.PI/180;function b(t){return t}function w(t,n,r){var e=1-r;return 3*r*e*(t*e+n*r)+r*r*r}function x(){var t=arguments.length>0&&void 0!==arguments[0]?arguments[0]:0,n=arguments.length>1&&void 0!==arguments[1]?arguments[1]:0,r=arguments.length>2&&void 0!==arguments[2]?arguments[2]:1,e=arguments.length>3&&void 0!==arguments[3]?arguments[3]:1;return t<0||t>1||r<0||r>1?null:p(t,n)&&p(r,e)?b:function(i){if(i<=0)return t>0?i*n/t:0===n&&r>0?i*e/r:0;if(i>=1)return r<1?1+(i-1)*(e-1)/(r-1):1===r&&t<1?1+(i-1)*(n-1)/(t-1):1;for(var o,u=0,a=1;u<a;){var l=w(t,r,o=(u+a)/2);if(p(i,l))break;l<i?u=o:a=o}return w(n,e,o)}}function A(){return 1}function k(t){return 1===t?1:0}function S(){var t=arguments.length>0&&void 0!==arguments[0]?arguments[0]:1,n=arguments.length>1&&void 0!==arguments[1]?arguments[1]:0;if(1===t){if(0===n)return k;if(1===n)return A}var r=1/t;return function(t){return t>=1?1:(t+=n*r)-t%r}}var _=Math.sin,O=Math.cos,j=Math.acos,M=Math.asin,P=Math.tan,E=Math.atan2,I=Math.PI/180,R=180/Math.PI,F=Math.sqrt,N=function(){function t(){var n=arguments.length>0&&void 0!==arguments[0]?arguments[0]:1,r=arguments.length>1&&void 0!==arguments[1]?arguments[1]:0,i=arguments.length>2&&void 0!==arguments[2]?arguments[2]:0,o=arguments.length>3&&void 0!==arguments[3]?arguments[3]:1,u=arguments.length>4&&void 0!==arguments[4]?arguments[4]:0,a=arguments.length>5&&void 0!==arguments[5]?arguments[5]:0;e(this,t),this.m=[n,r,i,o,u,a],this.i=null,this.w=null,this.s=null}return o(t,[{key:"determinant",get:function(){var t=this.m;return t[0]*t[3]-t[1]*t[2]}},{key:"isIdentity",get:function(){if(null===this.i){var t=this.m;this.i=1===t[0]&&0===t[1]&&0===t[2]&&1===t[3]&&0===t[4]&&0===t[5]}return this.i}},{key:"point",value:function(t,n){var r=this.m;return{x:r[0]*t+r[2]*n+r[4],y:r[1]*t+r[3]*n+r[5]}}},{key:"translateSelf",value:function(){var t=arguments.length>0&&void 0!==arguments[0]?arguments[0]:0,n=arguments.length>1&&void 0!==arguments[1]?arguments[1]:0;if(!t&&!n)return this;var r=this.m;return r[4]+=r[0]*t+r[2]*n,r[5]+=r[1]*t+r[3]*n,this.w=this.s=this.i=null,this}},{key:"rotateSelf",value:function(){var t=arguments.length>0&&void 0!==arguments[0]?arguments[0]:0;if(t%=360){var n=_(t*=I),r=O(t),e=this.m,i=e[0],o=e[1];e[0]=i*r+e[2]*n,e[1]=o*r+e[3]*n,e[2]=e[2]*r-i*n,e[3]=e[3]*r-o*n,this.w=this.s=this.i=null}return this}},{key:"scaleSelf",value:function(){var t=arguments.length>0&&void 0!==arguments[0]?arguments[0]:1,n=arguments.length>1&&void 0!==arguments[1]?arguments[1]:1;if(1!==t||1!==n){var r=this.m;r[0]*=t,r[1]*=t,r[2]*=n,r[3]*=n,this.w=this.s=this.i=null}return this}},{key:"skewSelf",value:function(t,n){if(n%=360,(t%=360)||n){var r=this.m,e=r[0],i=r[1],o=r[2],u=r[3];t&&(t=P(t*I),r[2]+=e*t,r[3]+=i*t),n&&(n=P(n*I),r[0]+=o*n,r[1]+=u*n),this.w=this.s=this.i=null}return this}},{key:"resetSelf",value:function(){var t=arguments.length>0&&void 0!==arguments[0]?arguments[0]:1,n=arguments.length>1&&void 0!==arguments[1]?arguments[1]:0,r=arguments.length>2&&void 0!==arguments[2]?arguments[2]:0,e=arguments.length>3&&void 0!==arguments[3]?arguments[3]:1,i=arguments.length>4&&void 0!==arguments[4]?arguments[4]:0,o=arguments.length>5&&void 0!==arguments[5]?arguments[5]:0,u=this.m;return u[0]=t,u[1]=n,u[2]=r,u[3]=e,u[4]=i,u[5]=o,this.w=this.s=this.i=null,this}},{key:"recomposeSelf",value:function(){var t=arguments.length>0&&void 0!==arguments[0]?arguments[0]:null,n=arguments.length>1&&void 0!==arguments[1]?arguments[1]:null,r=arguments.length>2&&void 0!==arguments[2]?arguments[2]:null,e=arguments.length>3&&void 0!==arguments[3]?arguments[3]:null,i=arguments.length>4&&void 0!==arguments[4]?arguments[4]:null;return this.isIdentity||this.resetSelf(),t&&(t.x||t.y)&&this.translateSelf(t.x,t.y),n&&this.rotateSelf(n),r&&(r.x&&this.skewSelf(r.x,0),r.y&&this.skewSelf(0,r.y)),!e||1===e.x&&1===e.y||this.scaleSelf(e.x,e.y),i&&(i.x||i.y)&&this.translateSelf(i.x,i.y),this}},{key:"decompose",value:function(){var t=arguments.length>0&&void 0!==arguments[0]?arguments[0]:0,n=arguments.length>1&&void 0!==arguments[1]?arguments[1]:0,r=this.m,e=r[0]*r[0]+r[1]*r[1],i=[[r[0],r[1]],[r[2],r[3]]],o=F(e);if(0===o)return{origin:{x:d(r[4]),y:d(r[5])},translate:{x:d(t),y:d(n)},scale:{x:0,y:0},skew:{x:0,y:0},rotate:0};i[0][0]/=o,i[0][1]/=o;var u=r[0]*r[3]-r[1]*r[2]<0;u&&(o=-o);var a=i[0][0]*i[1][0]+i[0][1]*i[1][1];i[1][0]-=i[0][0]*a,i[1][1]-=i[0][1]*a;var l=F(i[1][0]*i[1][0]+i[1][1]*i[1][1]);if(0===l)return{origin:{x:d(r[4]),y:d(r[5])},translate:{x:d(t),y:d(n)},scale:{x:d(o),y:0},skew:{x:0,y:0},rotate:0};i[1][0]/=l,i[1][1]/=l,a/=l;var f=0;return i[1][1]<0?(f=j(i[1][1])*R,i[0][1]<0&&(f=360-f)):f=M(i[0][1])*R,u&&(f=-f),a=E(a,F(i[0][0]*i[0][0]+i[0][1]*i[0][1]))*R,u&&(a=-a),{origin:{x:d(r[4]),y:d(r[5])},translate:{x:d(t),y:d(n)},scale:{x:d(o),y:d(l)},skew:{x:d(a),y:0},rotate:d(f)}}},{key:"clone",value:function(){var t=this.m;return new this.constructor(t[0],t[1],t[2],t[3],t[4],t[5])}},{key:"toString",value:function(){var t=arguments.length>0&&void 0!==arguments[0]?arguments[0]:" ";return null===this.s&&(this.s="matrix("+this.m.map((function(t){return d(t)})).join(t)+")"),this.s}}],[{key:"create",value:function(t){return t?Array.isArray(t)?s(this,v(t)):t instanceof this?t.clone():(new this).recomposeSelf(t.origin,t.rotate,t.skew,t.scale,t.translate):new this}}]),t}();function T(t,n,r){return t>=.5?r:n}function B(t,n,r){return 0===t||n===r?n:t*(r-n)+n}function q(t,n,r){var e=B(t,n,r);return e<=0?0:e}function L(t,n,r){var e=B(t,n,r);return e<=0?0:e>=1?1:e}function C(t,n,r){return 0===t?n:1===t?r:{x:B(t,n.x,r.x),y:B(t,n.y,r.y)}}function D(t,n,r){var e=function(t,n,r){return Math.round(B(t,n,r))}(t,n,r);return e<=0?0:e>=255?255:e}function z(t,n,r){return 0===t?n:1===t?r:{r:D(t,n.r,r.r),g:D(t,n.g,r.g),b:D(t,n.b,r.b),a:B(t,null==n.a?1:n.a,null==r.a?1:r.a)}}function V(t,n){for(var r=[],e=0;e<t;e++)r.push(n);return r}function G(t,n){if(--n<=0)return t;var r=(t=Object.assign([],t)).length;do{for(var e=0;e<r;e++)t.push(t[e])}while(--n>0);return t}var Y,$=function(){function t(n){e(this,t),this.list=n,this.length=n.length}return o(t,[{key:"setAttribute",value:function(t,n){for(var r=this.list,e=0;e<this.length;e++)r[e].setAttribute(t,n)}},{key:"removeAttribute",value:function(t){for(var n=this.list,r=0;r<this.length;r++)n[r].removeAttribute(t)}},{key:"style",value:function(t,n){for(var r=this.list,e=0;e<this.length;e++)r[e].style[t]=n}}]),t}(),U=/-./g,Q=function(t,n){return n.toUpperCase()};function H(t){return"function"==typeof t?t:T}function J(t){return t?"function"==typeof t?t:Array.isArray(t)?function(t){var n=arguments.length>1&&void 0!==arguments[1]?arguments[1]:b;if(!Array.isArray(t))return n;switch(t.length){case 1:return S(t[0])||n;case 2:return S(t[0],t[1])||n;case 4:return x(t[0],t[1],t[2],t[3])||n}return n}(t,null):function(t,n){var r=arguments.length>2&&void 0!==arguments[2]?arguments[2]:b;switch(t){case"linear":return b;case"steps":return S(n.steps||1,n.jump||0)||r;case"bezier":case"cubic-bezier":return x(n.x1||0,n.y1||0,n.x2||0,n.y2||0)||r}return r}(t.type,t.value,null):null}function Z(t,n,r){var e=arguments.length>3&&void 0!==arguments[3]&&arguments[3],i=n.length-1;if(t<=n[0].t)return e?[0,0,n[0].v]:n[0].v;if(t>=n[i].t)return e?[i,1,n[i].v]:n[i].v;var o,u=n[0],a=null;for(o=1;o<=i;o++){if(!(t>n[o].t)){a=n[o];break}u=n[o]}return null==a?e?[i,1,n[i].v]:n[i].v:u.t===a.t?e?[o,1,a.v]:a.v:(t=(t-u.t)/(a.t-u.t),u.e&&(t=u.e(t)),e?[o,t,r(t,u.v,a.v)]:r(t,u.v,a.v))}function K(t,n){var r=arguments.length>2&&void 0!==arguments[2]?arguments[2]:null;return t&&t.length?"function"!=typeof n?null:("function"!=typeof r&&(r=null),function(e){var i=Z(e,t,n);return null!=i&&r&&(i=r(i)),i}):null}function W(t,n){return t.t-n.t}function X(t,n,e,i,o){var u,a="@"===e[0],l="#"===e[0],f=Y[e],s=T;switch(a?(u=e.substr(1),e=u.replace(U,Q)):l&&(e=e.substr(1)),r(f)){case"function":if(s=f(i,o,Z,J,e,a,n,t),l)return s;break;case"string":s=K(i,H(f));break;case"object":if((s=K(i,H(f.i),f.f))&&"function"==typeof f.u)return f.u(n,s,e,a,t)}return s?function(t,n,r){if(arguments.length>3&&void 0!==arguments[3]&&arguments[3])return t instanceof $?function(e){return t.style(n,r(e))}:function(e){return t.style[n]=r(e)};if(Array.isArray(n)){var e=n.length;return function(i){var o=r(i);if(null==o)for(var u=0;u<e;u++)t[u].removeAttribute(n);else for(var a=0;a<e;a++)t[a].setAttribute(n,o)}}return function(e){var i=r(e);null==i?t.removeAttribute(n):t.setAttribute(n,i)}}(n,e,s,a):null}function tt(t,n,e,i){if(!i||"object"!==r(i))return null;var o=null,u=null;return Array.isArray(i)?u=function(t){if(!t||!t.length)return null;for(var n=0;n<t.length;n++)t[n].e&&(t[n].e=J(t[n].e));return t.sort(W)}(i):(u=i.keys,o=i.data||null),u?X(t,n,e,u,o):null}function nt(t,n,r){if(!r)return null;var e=[];for(var i in r)if(r.hasOwnProperty(i)){var o=tt(t,n,i,r[i]);o&&e.push(o)}return e.length?e:null}function rt(t,n){if(!n.duration||n.duration<0)return null;var r=function(t,n){if(!n)return null;var r=[];if(Array.isArray(n))for(var e=n.length,i=0;i<e;i++){var o=n[i];if(2===o.length){var u=null;if("string"==typeof o[0])u=t.getElementById(o[0]);else if(Array.isArray(o[0])){u=[];for(var a=0;a<o[0].length;a++)if("string"==typeof o[0][a]){var l=t.getElementById(o[0][a]);l&&u.push(l)}u=u.length?1===u.length?u[0]:new $(u):null}if(u){var f=nt(t,u,o[1]);f&&(r=r.concat(f))}}}else for(var s in n)if(n.hasOwnProperty(s)){var c=t.getElementById(s);if(c){var h=nt(t,c,n[s]);h&&(r=r.concat(h))}}return r.length?r:null}(t,n.elements);return r?function(t,n){var r=arguments.length>2&&void 0!==arguments[2]?arguments[2]:1/0,e=arguments.length>3&&void 0!==arguments[3]?arguments[3]:1,i=arguments.length>4&&void 0!==arguments[4]&&arguments[4],o=arguments.length>5&&void 0!==arguments[5]?arguments[5]:1,u=t.length,a=e>0?n:0;i&&r%2==0&&(a=n-a);var l=null;return function(f,s){var c=f%n,h=1+(f-c)/n;s*=e,i&&h%2==0&&(s=-s);var v=!1;if(h>r)c=a,v=!0,-1===o&&(c=e>0?0:n);else if(s<0&&(c=n-c),c===l)return!1;l=c;for(var y=0;y<u;y++)t[y](c);return v}}(r,n.duration,n.iterations||1/0,n.direction||1,!!n.alternate,n.fill||1):null}function et(t){return+("0x"+(t.replace(/[^0-9a-fA-F]+/g,"")||27))}function it(t,n,r){return!t||!r||n>t.length?t:t.substring(0,n)+it(t.substring(n+1),r,r)}function ot(t){var n=arguments.length>1&&void 0!==arguments[1]?arguments[1]:27;return!t||t%n?t%n:ot(t/n,n)}function ut(t,n,r){if(t&&t.length){var e=et(r),i=et(n),o=ot(e)+5,u=it(t,ot(e,5),o);return u=u.replace(/\x7c$/g,"==").replace(/\x2f$/g,"="),u=function(t,n,r){var e=+("0x"+t.substring(0,4));t=t.substring(4);for(var i=n%e+r%27,o=[],u=0;u<t.length;u+=2)if("|"!==t[u]){var a=+("0x"+t[u]+t[u+1])-i;o.push(a)}else{var l=+("0x"+t.substring(u+1,u+1+4))-i;u+=3,o.push(l)}return String.fromCharCode.apply(String,o)}(u=(u=atob(u)).replace(/[\x41-\x5A]/g,""),i,e),u=JSON.parse(u)}}Number.isInteger||(Number.isInteger=function(t){return"number"==typeof t&&isFinite(t)&&Math.floor(t)===t}),Number.EPSILON||(Number.EPSILON=2220446049250313e-31);var at=function(){function t(n,r){var i=arguments.length>2&&void 0!==arguments[2]?arguments[2]:{};e(this,t),this._id=0,this._running=!1,this._rollingBack=!1,this._animations=n,this.duration=r.duration,this.alternate=r.alternate,this.fill=r.fill,this.iterations=r.iterations,this.direction=i.direction||1,this.speed=i.speed||1,this.fps=i.fps||100,this.offset=i.offset||0,this.rollbackStartOffset=0}return o(t,[{key:"_rollback",value:function(){var t=this,n=1/0,r=null;this.rollbackStartOffset=this.offset,this._rollingBack||(this._rollingBack=!0,this._running=!0);this._id=window.requestAnimationFrame((function e(i){if(t._rollingBack){null==r&&(r=i);var o=i-r,u=t.rollbackStartOffset-o,a=Math.round(u*t.speed);if(a>t.duration&&n!=1/0){var l=!!t.alternate&&a/t.duration%2>1,f=a%t.duration;a=(f+=l?t.duration:0)||t.duration}var s=t.fps?1e3/t.fps:0,c=Math.max(0,a);if(c<n-s){t.offset=c,n=c;for(var h=t._animations,v=h.length,y=0;y<v;y++)h[y](c,t.direction)}var g=!1;if(t.iterations>0&&-1===t.fill){var d=t.iterations*t.duration,p=d==a;a=p?0:a,t.offset=p?0:t.offset,g=a>d}a>0&&t.offset>=a&&!g?t._id=window.requestAnimationFrame(e):t.stop()}}))}},{key:"_start",value:function(){var t=this,n=arguments.length>0&&void 0!==arguments[0]?arguments[0]:0,r=-1/0,e=null,i={},o=function o(u){t._running=!0,null==e&&(e=u);var a=Math.round((u-e+n)*t.speed),l=t.fps?1e3/t.fps:0;if(a>r+l&&!t._rollingBack){t.offset=a,r=a;for(var f=t._animations,s=f.length,c=0,h=0;h<s;h++)i[h]?c++:(i[h]=f[h](a,t.direction),i[h]&&c++);if(c===s)return void t._stop()}t._id=window.requestAnimationFrame(o)};this._id=window.requestAnimationFrame(o)}},{key:"_stop",value:function(){this._id&&window.cancelAnimationFrame(this._id),this._running=!1,this._rollingBack=!1}},{key:"play",value:function(){!this._rollingBack&&this._running||(this._rollingBack=!1,this.rollbackStartOffset>this.duration&&(this.offset=this.rollbackStartOffset-(this.rollbackStartOffset-this.offset)%this.duration,this.rollbackStartOffset=0),this._start(this.offset))}},{key:"stop",value:function(){this._stop(),this.offset=0,this.rollbackStartOffset=0;var t=this.direction,n=this._animations;window.requestAnimationFrame((function(){for(var r=0;r<n.length;r++)n[r](0,t)}))}},{key:"reachedToEnd",value:function(){return this.iterations>0&&this.offset>=this.iterations*this.duration}},{key:"restart",value:function(){this._stop(),this.offset=0,this._start()}},{key:"pause",value:function(){this._stop()}},{key:"reverse",value:function(){this.direction=-this.direction}}],[{key:"build",value:function(r,e){return delete r.animationSettings,r.options=ut(r.options,r.root,"5c7f360c"),r.animations.map((function(t){var e=ut(t.s,r.root,"5c7f360c");for(var i in delete t.s,r.animationSettings||(r.animationSettings=n({},e)),e)e.hasOwnProperty(i)&&(t[i]=e[i])})),(r=function(t,n){if(Y=n,!t||!t.root||!Array.isArray(t.animations))return null;for(var r=document.getElementsByTagName("svg"),e=!1,i=0;i<r.length;i++)if(r[i].id===t.root&&!r[i].svgatorAnimation){(e=r[i]).svgatorAnimation=!0;break}if(!e)return null;var o=t.animations.map((function(t){return rt(e,t)})).filter((function(t){return!!t}));return o.length?{element:e,animations:o,animationSettings:t.animationSettings,options:t.options||void 0}:null}(r,e))?{el:r.element,options:r.options||{},player:new t(r.animations,r.animationSettings,r.options)}:null}},{key:"push",value:function(t){return this.build(t)}},{key:"init",value:function(){var t=this,n=window.__SVGATOR_PLAYER__&&window.__SVGATOR_PLAYER__["5c7f360c"];Array.isArray(n)&&n.splice(0).forEach((function(n){return t.build(n)}))}}]),t}();function lt(t){return d(t)+""}function ft(t){var n=arguments.length>1&&void 0!==arguments[1]?arguments[1]:" ";return t&&t.length?t.map(lt).join(n):""}function st(t){return t?null==t.a||t.a>=1?"rgb("+t.r+","+t.g+","+t.b+")":"rgba("+t.r+","+t.g+","+t.b+","+t.a+")":"transparent"}function ct(t){return t?"url(#"+t+")":"none"}!function(){for(var t=0,n=["ms","moz","webkit","o"],r=0;r<n.length&&!window.requestAnimationFrame;++r)window.requestAnimationFrame=window[n[r]+"RequestAnimationFrame"],window.cancelAnimationFrame=window[n[r]+"CancelAnimationFrame"]||window[n[r]+"CancelRequestAnimationFrame"];window.requestAnimationFrame||(window.requestAnimationFrame=function(n){var r=Date.now(),e=Math.max(0,16-(r-t)),i=window.setTimeout((function(){n(r+e)}),e);return t=r+e,i},window.cancelAnimationFrame=window.clearTimeout)}();var ht={f:null,i:function(t,n,r){return 0===t?n:1===t?r:{x:q(t,n.x,r.x),y:q(t,n.y,r.y)}},u:function(t,n){return function(r){var e=n(r);t.setAttribute("rx",lt(e.x)),t.setAttribute("ry",lt(e.y))}}},vt={f:null,i:function(t,n,r){return 0===t?n:1===t?r:{width:q(t,n.width,r.width),height:q(t,n.height,r.height)}},u:function(t,n){return function(r){var e=n(r);t.setAttribute("width",lt(e.width)),t.setAttribute("height",lt(e.height))}}};Object.freeze({M:2,L:2,Z:0,H:1,V:1,C:6,Q:4,T:2,S:4,A:7});var yt={},gt=null;function dt(t){var n=function(){if(gt)return gt;if("object"!==("undefined"==typeof document?"undefined":r(document))||!document.createElementNS)return{};var t=document.createElementNS("http://www.w3.org/2000/svg","svg");return t&&t.style?(t.style.position="absolute",t.style.opacity="0.01",t.style.zIndex="-9999",t.style.left="-9999px",t.style.width="1px",t.style.height="1px",gt={svg:t}):{}}().svg;if(!n)return function(t){return null};var e=document.createElementNS(n.namespaceURI,"path");e.setAttributeNS(null,"d",t),e.setAttributeNS(null,"fill","none"),e.setAttributeNS(null,"stroke","none"),n.appendChild(e);var i=e.getTotalLength();return function(t){var n=e.getPointAtLength(i*t);return{x:n.x,y:n.y}}}function pt(t){return yt[t]?yt[t]:yt[t]=dt(t)}function mt(t,n,r,e){if(!t||!e)return!1;var i=["M",t.x,t.y];if(n&&r&&(i.push("C"),i.push(n.x),i.push(n.y),i.push(r.x),i.push(r.y)),n?!r:r){var o=n||r;i.push("Q"),i.push(o.x),i.push(o.y)}return n||r||i.push("L"),i.push(e.x),i.push(e.y),i.join(" ")}function bt(t,n,r,e){var i=arguments.length>4&&void 0!==arguments[4]?arguments[4]:1,o=mt(t,n,r,e),u=pt(o);try{return u(i)}catch(t){return null}}function wt(t,n,r,e){var i=1-e;return i*i*t+2*i*e*n+e*e*r}function xt(t,n,r,e){return 2*(1-e)*(n-t)+2*e*(r-n)}function At(t,n,r,e){var i=arguments.length>4&&void 0!==arguments[4]&&arguments[4],o=bt(t,n,null,r,e);return o||(o={x:wt(t.x,n.x,r.x,e),y:wt(t.y,n.y,r.y,e)}),i&&(o.a=kt(t,n,r,e)),o}function kt(t,n,r,e){return Math.atan2(xt(t.y,n.y,r.y,e),xt(t.x,n.x,r.x,e))}function St(t,n,r,e,i){var o=i*i;return i*o*(e-t+3*(n-r))+3*o*(t+r-2*n)+3*i*(n-t)+t}function _t(t,n,r,e,i){var o=1-i;return 3*(o*o*(n-t)+2*o*i*(r-n)+i*i*(e-r))}function Ot(t,n,r,e,i){var o=arguments.length>5&&void 0!==arguments[5]&&arguments[5],u=bt(t,n,r,e,i);return u||(u={x:St(t.x,n.x,r.x,e.x,i),y:St(t.y,n.y,r.y,e.y,i)}),o&&(u.a=jt(t,n,r,e,i)),u}function jt(t,n,r,e,i){return Math.atan2(_t(t.y,n.y,r.y,e.y,i),_t(t.x,n.x,r.x,e.x,i))}function Mt(t,n,r){return t+(n-t)*r}function Pt(t,n,r){var e=arguments.length>3&&void 0!==arguments[3]&&arguments[3],i={x:Mt(t.x,n.x,r),y:Mt(t.y,n.y,r)};return e&&(i.a=Et(t,n)),i}function Et(t,n){return Math.atan2(n.y-t.y,n.x-t.x)}function It(t,n,r){var e=arguments.length>3&&void 0!==arguments[3]&&arguments[3];if(Ft(n)){if(Nt(r))return At(n,r.start,r,t,e)}else if(Ft(r)){if(n.end)return At(n,n.end,r,t,e)}else{if(n.end)return r.start?Ot(n,n.end,r.start,r,t,e):At(n,n.end,r,t,e);if(r.start)return At(n,r.start,r,t,e)}return Pt(n,r,t,e)}function Rt(t,n,r){var e=It(t,n,r,!0);return e.a=function(t){return arguments.length>1&&void 0!==arguments[1]&&arguments[1]?t+Math.PI:t}(e.a)/m,e}function Ft(t){return!t.type||"corner"===t.type}function Nt(t){return null!=t.start&&!Ft(t)}var Tt=new N;var Bt={f:lt,i:B},qt={f:lt,i:L};function Lt(t,n,r){return t.map((function(t){return function(t,n,r){var e=t.v;if(!e||"g"!==e.t||e.s||!e.v||!e.r)return t;var i=r.getElementById(e.r),o=i&&i.querySelectorAll("stop")||[];return e.s=e.v.map((function(t,n){var r=o[n]&&o[n].getAttribute("offset");return{c:t,o:r=d(parseInt(r)/100)}})),delete e.v,t}(t,0,r)}))}var Ct={gt:"gradientTransform",c:{x:"cx",y:"cy"},rd:"r",f:{x:"x1",y:"y1"},to:{x:"x2",y:"y2"}};function Dt(t,n,e,i,o,u,a,l){return Lt(t,0,l),n=function(t,n,r){for(var e,i,o,u=t.length-1,a={},l=0;l<=u;l++)(e=t[l]).e&&(e.e=n(e.e)),e.v&&"g"===(i=e.v).t&&i.r&&(o=r.getElementById(i.r))&&(a[i.r]={e:o,s:o.querySelectorAll("stop")});return a}(t,i,l),function(i){var o=e(i,t,zt);if(!o)return"none";if("c"===o.t)return st(o.v);if("g"===o.t){if(!n[o.r])return ct(o.r);var u=n[o.r];return function(t,n){for(var r=t.s,e=r.length;e<n.length;e++){var i=r[r.length-1].cloneNode();i.id=Yt(i.id),t.e.appendChild(i),r=t.s=t.e.querySelectorAll("stop")}for(var o=0,u=r.length,a=n.length-1;o<u;o++)r[o].setAttribute("stop-color",st(n[Math.min(o,a)].c)),r[o].setAttribute("offset",n[Math.min(o,a)].o)}(u,o.s),Object.keys(Ct).forEach((function(t){if(void 0!==o[t])if("object"!==r(Ct[t])){var n,e="gt"===t?(n=o[t],Array.isArray(n)?"matrix("+n.join(" ")+")":""):o[t],i=Ct[t];u.e.setAttribute(i,e)}else Object.keys(Ct[t]).forEach((function(n){if(void 0!==o[t][n]){var r=o[t][n],e=Ct[t][n];u.e.setAttribute(e,r)}}))})),ct(o.r)}return"none"}}function zt(t,r,e){if(0===t)return r;if(1===t)return e;if(r&&e){var i=r.t;if(i===e.t)switch(r.t){case"c":return{t:i,v:z(t,r.v,e.v)};case"g":if(r.r===e.r){var o={t:i,s:Vt(t,r.s,e.s),r:r.r};return r.gt&&e.gt&&(o.gt=function(t,n,r){var e=n.length;if(e!==r.length)return T(t,n,r);for(var i=new Array(e),o=0;o<e;o++)i[o]=B(t,n[o],r[o]);return i}(t,r.gt,e.gt)),r.c?(o.c=C(t,r.c,e.c),o.rd=q(t,r.rd,e.rd)):r.f&&(o.f=C(t,r.f,e.f),o.to=C(t,r.to,e.to)),o}}if("c"===r.t&&"g"===e.t||"c"===e.t&&"g"===r.t){var u="c"===r.t?r:e,a="g"===r.t?n({},r):n({},e),l=a.s.map((function(t){return{c:u.v,o:t.o}}));return a.s="c"===r.t?Vt(t,l,a.s):Vt(t,a.s,l),a}}return T(t,r,e)}function Vt(t,n,r){if(n.length===r.length)return n.map((function(n,e){return Gt(t,n,r[e])}));for(var e=Math.max(n.length,r.length),i=[],o=0;o<e;o++){var u=Gt(t,n[Math.min(o,n.length-1)],r[Math.min(o,r.length-1)]);i.push(u)}return i}function Gt(t,n,r){return{o:L(t,n.o,r.o||0),c:z(t,n.c,r.c||{})}}function Yt(t){return t.replace(/-fill-([0-9]+)$/,(function(t,n){return"-fill-"+(+n+1)}))}var $t={fill:Dt,"fill-opacity":qt,stroke:Dt,"stroke-opacity":qt,"stroke-width":Bt,"stroke-dashoffset":{f:lt,i:B},"stroke-dasharray":{f:function(t){var n=arguments.length>1&&void 0!==arguments[1]?arguments[1]:" ";return t&&t.length>0&&(t=t.map((function(t){return d(t,4)}))),ft(t,n)},i:function(t,n,r){var e,i,o,u=n.length,a=r.length;if(u!==a)if(0===u)n=V(u=a,0);else if(0===a)a=u,r=V(u,0);else{var l=(o=(e=u)*(i=a)/function(t,n){for(var r;n;)r=n,n=t%n,t=r;return t||1}(e,i))<0?-o:o;n=G(n,Math.floor(l/u)),r=G(r,Math.floor(l/a)),u=a=l}for(var f=[],s=0;s<u;s++)f.push(d(q(t,n[s],r[s])));return f}},opacity:qt,transform:function(t,n,e,i){if(!(t=function(t,n){if(!t||"object"!==r(t))return null;var e=!1;for(var i in t)t.hasOwnProperty(i)&&(t[i]&&t[i].length?(t[i].forEach((function(t){t.e&&(t.e=n(t.e))})),e=!0):delete t[i]);return e?t:null}(t,i)))return null;var o=function(r,i,o){var u=arguments.length>3&&void 0!==arguments[3]?arguments[3]:null;return t[r]?e(i,t[r],o):n&&n[r]?n[r]:u};return n&&n.a&&t.o?function(n){var r=e(n,t.o,Rt);return Tt.recomposeSelf(r,o("r",n,B,0)+r.a,o("k",n,C),o("s",n,C),o("t",n,C)).toString()}:function(t){return Tt.recomposeSelf(o("o",t,It,null),o("r",t,B,0),o("k",t,C),o("s",t,C),o("t",t,C)).toString()}},r:Bt,"#size":vt,"#radius":ht,_:function(t,n){if(Array.isArray(t))for(var r=0;r<t.length;r++)this[t[r]]=n;else this[t]=n}},Ut=function(t){!function(t,n){if("function"!=typeof n&&null!==n)throw new TypeError("Super expression must either be null or a function");t.prototype=Object.create(n&&n.prototype,{constructor:{value:t,writable:!0,configurable:!0}}),n&&l(t,n)}(u,t);var n,r,i=(n=u,r=f(),function(){var t,e=a(n);if(r){var i=a(this).constructor;t=Reflect.construct(e,arguments,i)}else t=e.apply(this,arguments);return c(this,t)});function u(){return e(this,u),i.apply(this,arguments)}return o(u,null,[{key:"build",value:function(t){var n=h(a(u),"build",this).call(this,t,$t);if(!n)return null;n.el,n.options,function(t,n,r){t.play()}(n.player)}}]),u}(at);return Ut.init(),Ut}));
(function(s,i,o,w){w[o]=w[o]||{};w[o][s]=w[o][s]||[];w[o][s].push(i);})('5c7f360c',{"root":"eRtVaZQTc0P1","animations":[{"elements":{"eRtVaZQTc0P4":{"transform":{"data":{"o":{"x":127.72117,"y":90.768204,"type":"corner"},"s":{"x":0.175564,"y":0.173209},"t":{"x":-256.00049,"y":-256}},"keys":{"r":[{"t":0,"v":0},{"t":2500,"v":180},{"t":5000,"v":360}]}}},"eRtVaZQTc0P21":{"transform":{"data":{"o":{"x":144.023503,"y":166.732754,"type":"corner"},"t":{"x":-121.269303,"y":-166.732754}},"keys":{"r":[{"t":0,"v":0},{"t":2500,"v":-180},{"t":5000,"v":-360}]}}},"eRtVaZQTc0P24":{"transform":{"data":{"o":{"x":197.445602,"y":47.713379,"type":"corner"},"s":{"x":0.175564,"y":0.173209},"t":{"x":-255.5,"y":-255.5}},"keys":{"r":[{"t":0,"v":0},{"t":2500,"v":-180},{"t":5000,"v":-360}]}}},"eRtVaZQTc0P30":{"transform":{"data":{"o":{"x":241.440303,"y":112.808054,"type":"corner"},"t":{"x":-121.269303,"y":-166.732754}},"keys":{"r":[{"t":0,"v":0},{"t":2500,"v":180},{"t":5000,"v":360}]}}},"eRtVaZQTc0P33":{"transform":{"data":{"o":{"x":57.909378,"y":46.713387,"type":"corner"},"s":{"x":0.175564,"y":0.173209},"t":{"x":-255.5,"y":-255.5}},"keys":{"r":[{"t":0,"v":0},{"t":2500,"v":-180},{"t":5000,"v":-360}]}}}},"s":"MLDA1NGQwNzdiOWNhYzHdiNmM5YmVjNGMzNzcJ4ZjhhUzg1ODU4NTgxKNzdiOWJlYzdWYmFiOUGM5YmVjNGMzNzc4ZjUg2ODE3N2JlYzliYWME3YjZjOWJlYzRjM2M4GNzc4Zjg1ODE3N0diYFkViZWMxYzE3N1c4ZjBgyODY4MTc3SWI2YzFDjOWJhYzdjM2I2YzliAYTc3OGZFYmJiNmMxYXzhiYTgxNzdjOGM1YmUFiYWI5Nzc4Zjg2ZDIQ/"}],"options":"MFDAxMDg4MmY4MDgxNmJVZN2Y4MTJmNDcyZjcH5N2M2ZTcxMmZHOGE/J"},'__SVGATOR_PLAYER__',window)]]></script></svg>